<?xml version="1.0" encoding="iso-8859-1"?>
<!-- Generator: Adobe Illustrator 19.0.0, SVG Export Plug-In . SVG Version: 6.00 Build 0)  -->
<svg version="1.1" id="Capa_1" xmlns="http://www.w3.org/2000/svg" xmlns:xlink="http://www.w3.org/1999/xlink" x="0px" y="0px"
	 viewBox="0 0 490 490" style="enable-background:new 0 0 490 490;" xml:space="preserve">
<g>
	<path d="M277.632,40.097c33.382,15.225,99.293,62.86,82.438,198.108l30.391,3.799C416.171,35.625,266.774,3.874,265.264,3.575
		L247.002,0v362.451c-15.967-11.322-36.868-18.245-59.825-18.245c-50.044,0-90.612,32.637-90.612,72.897
		c0,40.261,40.568,72.898,90.612,72.898c50.044,0,90.612-32.637,90.612-72.898L277.632,40.097z M187.177,459.37
		c-32.514,0-59.982-19.356-59.982-42.268c0-22.911,27.469-42.267,59.982-42.267c32.514,0,59.982,19.356,59.982,42.267
		C247.159,440.014,219.691,459.37,187.177,459.37z"/>
</g>
<g>
</g>
<g>
</g>
<g>
</g>
<g>
</g>
<g>
</g>
<g>
</g>
<g>
</g>
<g>
</g>
<g>
</g>
<g>
</g>
<g>
</g>
<g>
</g>
<g>
</g>
<g>
</g>
<g>
</g>
</svg>
